<?xml version="1.0" encoding="utf-8"?>
<!-- Generator: Adobe Illustrator 24.1.2, SVG Export Plug-In . SVG Version: 6.00 Build 0)  -->
<svg version="1.1" id="Capa_1" xmlns="http://www.w3.org/2000/svg" xmlns:xlink="http://www.w3.org/1999/xlink" x="0px" y="0px"
	 viewBox="0 0 64 64" style="enable-background:new 0 0 64 64;" xml:space="preserve">
<style type="text/css">
	.st0{fill:#DDE5F6;}
	.st1{fill:#12253B;}
	.st2{fill:#83A7BC;}
	.st3{fill:#59859F;}
	.st4{fill:#DF9F71;}
</style>
<rect class="st0" width="64" height="64"/>
<g>
	<g>
		<path class="st1" d="M43.6,21.6C43.6,21.6,43.7,21.7,43.6,21.6c0.7,1.4,1.2,2.8,1.8,4.2c1.3,3.1,2.7,6.2,4,9.3
			c1.5,3.6,3.1,7.2,4.6,10.7c0,0.1,0.1,0.1,0.1,0.2c0,0.1,0,0.2-0.1,0.2h-9.4c-0.1,0-0.1,0-0.1-0.1c-0.2-0.3-0.3-0.7-0.5-1
			c-1.4-3.3-2.9-6.6-4.3-9.9c0-0.1,0-0.1-0.1-0.2c0-0.1,0-0.2,0.1-0.2c0.5,0,1,0,1.4,0c1.2,0,2.3,0,3.5,0h1.1c0.1,0,0.1,0,0.1-0.1
			c0.5-0.9,0.2-2.6-0.7-3.6c-0.9-1-1.6-1.3-3.5-1.3c-0.1,0-0.1-0.1-0.2-0.1c-0.2-1.3-0.8-2.4-2-3.2c-1.1-0.7-2.4-0.9-3.7-0.6
			c-0.1,0-0.1,0-0.2-0.1c-1.1-2.7-2.3-5.3-3.5-8.1c-0.1-0.1-0.2-0.1-0.3,0c-0.8,1.9-1.6,3.7-2.4,5.6c0,0.1-0.2,0.1-0.3,0
			c-2.4-2.5-5.7-2.3-7.8-0.8c0-0.1,0.1-0.2,0.1-0.3c1.4-2.9,2.8-5.9,4.3-8.8c0.1-0.2,0.2-0.4,0.2-0.6c0.1-0.7-0.4-1.4-1.2-1.3
			c-0.8,0-1.6,0.2-2.3,0.4c-0.1,0-0.3,0.1-0.4,0.1c-0.5,0.1-0.8-0.4-0.6-0.8c0,0,0,0,0,0c0.7-1.2,1.3-2.3,2-3.4
			c1.7-2.5,4.1-3.9,7.1-3.8c2.6,0.1,4.7,1.2,6.3,3.2c0.7,0.8,1.1,1.7,1.5,2.7c0.5,1.2,1,2.5,1.6,3.7c0,0,0,0.1,0,0.1
			c0,0.1-0.1,0.2-0.1,0.3c-1.9,3.5,0.4,7,3.4,7.7C43.4,21.5,43.5,21.6,43.6,21.6z"/>
		<path class="st1" d="M23.7,34.8c-0.7,1.9-1.9,4-2.6,6c0.2,0,1.6,0.7,4.3,0.3c1.6-0.2,2.5-0.9,3.6-1.7c0.9-0.6,1.7-1.2,2.5-1.8
			c0.3-0.2,0.7-0.5,1.1-0.7c0.2-0.2,0.8-0.4,1-0.2c0.2,0.3,0,0.9-0.1,1.2c-0.5,0.9-0.9,1.8-1.5,2.6c-1.6,2.3-3.6,4.2-6.1,5.4
			c-2.9,1.4-7.5,1.8-10.5,0.5c-3.3-1.5-4-3.3-2.4-7.1c0.4-0.8,1.8-3.8,2.3-4.6c4.7,0,2.5,0,7.2,0C22.7,34.8,20.3,34.8,23.7,34.8z"/>
		<path class="st2" d="M44.7,34.8c-1.2,0-2.3,0-3.5,0c-0.5,0-1.1,0-1.6,0c-2.5,0-5.1,0-7.6,0c-0.4-1.7-1.3-2.8-3-3.2
			c-0.7-0.1-1.4,0-2.1,0.2c-0.7-1.9-2-3-4-3.2c-2-0.1-3.5,0.8-4.4,2.7c-0.6-1.4-1.2-2-2.5-2.6c-0.4-0.2-0.9-0.3-1.3-0.4
			c0.1-0.9,0.3-1.7,0.8-2.5c1.8-2.6,5.5-2.5,7.2,0.2c0,0,0,0,0.1,0.1c2.2-1.5,4.9-0.5,5.5,1.8c2.5-1.8,4.7-1.4,6.8,0.6
			c1.2-0.7,2.4-0.7,3.6,0.1c1.2,0.8,1.6,1.9,1.6,3.3c0.3,0,0.5,0,0.7-0.1c1.6-0.2,3,0.6,3.6,2.1C44.7,34.3,44.7,34.5,44.7,34.8z"/>
		<path class="st3" d="M30.5,34.8c-5.1,0-10.3,0-15.4,0c-1.4,0-2.8,0-4.3,0C10,33.6,10,32.3,10.5,31c0.6-1.5,1.7-2.4,3.4-2.6
			c0.2,0,0.3,0,0.5-0.1c0.1,0,0.3,0,0.4,0c0.4,0.1,0.8,0.2,1.2,0.3c1.2,0.5,1.8,1.2,2.5,2.6c0.9-1.8,2.4-2.8,4.4-2.7
			c2,0.1,3.3,1.3,4,3.2c0.7-0.3,1.4-0.4,2.1-0.2c1.7,0.4,2.7,1.5,3,3.2"/>
		<path class="st4" d="M43.4,23.1C43.3,23.1,43.1,23,43,23c-3.9-0.9-6.8-5.4-4.4-9.9c0.1-0.1,0.1-0.3,0.1-0.4
			c0.1-0.1,0.2-0.2,0.3-0.3c1.7-2,3.9-2.9,6.4-2.5c2.6,0.4,4.4,1.9,5.2,4.4c0.7,2,0.5,4-0.7,5.8c-1.5,2.3-3.6,3.4-6.4,3.1
			C43.7,23.1,43.5,23.1,43.4,23.1z"/>
		<path class="st2" d="M14.3,28.4c-0.2,0-0.3,0-0.5,0.1C14,28.4,14.2,28.4,14.3,28.4z"/>
		<path class="st2" d="M20.1,35.8c0.1,0.2,0,0.4,0,0.5c-0.3,0.7-0.5,1.4-0.8,2.1c0,0,0,0.1-0.1,0.1c-0.1,0.2-0.3,0.4-0.6,0.3
			c-0.3-0.1-0.3-0.3-0.2-0.6c0.2-0.6,0.5-1.2,0.7-1.8c0.1-0.2,0.1-0.5,0.3-0.7c0.1-0.1,0.3-0.2,0.4-0.2C20,35.6,20.1,35.6,20.1,35.8
			z"/>
		<path class="st2" d="M17.1,35.8c0.1,0.2,0,0.4,0,0.5c-0.3,0.7-0.5,1.4-0.8,2.1c0,0,0,0.1-0.1,0.1c-0.1,0.2-0.3,0.4-0.6,0.3
			c-0.3-0.1-0.3-0.3-0.2-0.6c0.2-0.6,0.5-1.2,0.7-1.8c0.1-0.2,0.1-0.5,0.3-0.7c0.1-0.1,0.3-0.2,0.4-0.2C16.9,35.6,17,35.6,17.1,35.8
			z"/>
		<path class="st2" d="M23.9,40.1c0.1,0.2,0,0.4,0,0.5c-0.3,0.7-0.5,1.4-0.8,2.1c0,0,0,0.1-0.1,0.1c-0.1,0.2-0.3,0.4-0.6,0.3
			c-0.3-0.1-0.3-0.3-0.2-0.6c0.2-0.6,0.5-1.2,0.7-1.8c0.1-0.2,0.1-0.5,0.3-0.7c0.1-0.1,0.3-0.2,0.4-0.2
			C23.8,39.9,23.9,39.9,23.9,40.1z"/>
		<path class="st2" d="M21.4,40c0.1,0.2,0,0.4,0,0.5c-0.3,0.7-0.5,1.4-0.8,2.1c0,0,0,0.1-0.1,0.1c-0.1,0.2-0.3,0.4-0.6,0.3
			c-0.3-0.1-0.3-0.3-0.2-0.6c0.2-0.6,0.5-1.2,0.7-1.8c0.1-0.2,0.1-0.5,0.3-0.7c0.1-0.1,0.3-0.2,0.4-0.2C21.2,39.7,21.3,39.8,21.4,40
			z"/>
		<path class="st2" d="M21.4,43.9c0.1,0.2,0,0.4,0,0.5c-0.3,0.7-0.5,1.4-0.8,2.1c0,0,0,0.1-0.1,0.1c-0.1,0.2-0.3,0.4-0.6,0.3
			c-0.3-0.1-0.3-0.3-0.2-0.6c0.2-0.6,0.5-1.2,0.7-1.8c0.1-0.2,0.1-0.5,0.3-0.7c0.1-0.1,0.3-0.2,0.4-0.2
			C21.2,43.6,21.3,43.7,21.4,43.9z"/>
		<path class="st2" d="M18.6,43.6c0.1,0.2,0,0.4,0,0.5c-0.3,0.7-0.5,1.4-0.8,2.1c0,0,0,0.1-0.1,0.1c-0.1,0.2-0.3,0.4-0.6,0.3
			c-0.3-0.1-0.3-0.3-0.2-0.6c0.2-0.6,0.5-1.2,0.7-1.8c0.1-0.2,0.1-0.5,0.3-0.7c0.1-0.1,0.3-0.2,0.4-0.2
			C18.4,43.4,18.5,43.5,18.6,43.6z"/>
		<path class="st2" d="M18.6,40c0.1,0.2,0,0.4,0,0.5c-0.3,0.7-0.5,1.4-0.8,2.1c0,0,0,0.1-0.1,0.1c-0.1,0.2-0.3,0.4-0.6,0.3
			c-0.3-0.1-0.3-0.3-0.2-0.6c0.2-0.6,0.5-1.2,0.7-1.8c0.1-0.2,0.1-0.5,0.3-0.7c0.1-0.1,0.3-0.2,0.4-0.2C18.4,39.8,18.5,39.8,18.6,40
			z"/>
		<path class="st2" d="M28,35.8c0.1,0.2,0,0.4,0,0.5c-0.3,0.7-0.5,1.4-0.8,2.1c0,0,0,0.1-0.1,0.1c-0.1,0.2-0.3,0.4-0.6,0.3
			c-0.3-0.1-0.3-0.3-0.2-0.6c0.2-0.6,0.5-1.2,0.7-1.8c0.1-0.2,0.1-0.5,0.3-0.7c0.1-0.1,0.3-0.2,0.4-0.2C27.9,35.6,28,35.6,28,35.8z"
			/>
		<path class="st2" d="M25.4,35.8c0.1,0.2,0,0.4,0,0.5c-0.3,0.7-0.5,1.4-0.8,2.1c0,0,0,0.1-0.1,0.1c-0.1,0.2-0.3,0.4-0.6,0.3
			c-0.3-0.1-0.3-0.3-0.2-0.6c0.2-0.6,0.5-1.2,0.7-1.8c0.1-0.2,0.1-0.5,0.3-0.7c0.1-0.1,0.3-0.2,0.4-0.2
			C25.3,35.6,25.4,35.6,25.4,35.8z"/>
		<path class="st2" d="M22.9,35.8c0.1,0.2,0,0.4,0,0.5c-0.3,0.7-0.5,1.4-0.8,2.1c0,0,0,0.1-0.1,0.1c-0.1,0.2-0.3,0.4-0.6,0.3
			c-0.3-0.1-0.3-0.3-0.2-0.6c0.2-0.6,0.5-1.2,0.7-1.8c0.1-0.2,0.1-0.5,0.3-0.7c0.1-0.1,0.3-0.2,0.4-0.2
			C22.8,35.6,22.9,35.6,22.9,35.8z"/>
	</g>
	<path class="st1" d="M17.9,51.4c0,1,0,2,0,3.1c-0.3,0-0.6,0-1,0c0-1.6,0-3.2,0-4.9c0.3,0,0.6,0,0.9,0c0.8,1,1.6,2,2.4,3.1
		c0-1.1,0-2.1,0-3.1c0.3,0,0.7,0,1,0c0,1.6,0,3.2,0,4.9c-0.3,0-0.5,0-0.8,0C19.6,53.5,18.8,52.5,17.9,51.4
		C17.9,51.4,17.9,51.4,17.9,51.4z"/>
	<path class="st1" d="M22.4,49.6c0.7,0,1.3,0,2,0c1,0.1,1.8,0.5,2.2,1.4c0.7,1.5-0.2,3.3-1.9,3.5c-0.8,0.1-1.6,0-2.4,0
		C22.4,52.9,22.4,51.3,22.4,49.6z M23.4,53.6c0.3,0,0.6,0,0.9,0c0.9-0.1,1.5-0.7,1.5-1.5c0-0.8-0.5-1.5-1.3-1.6c-0.4,0-0.7,0-1.1,0
		C23.4,51.6,23.4,52.6,23.4,53.6z"/>
	<path class="st1" d="M54.4,54.5c-0.4,0-0.7,0-1,0c-0.2-0.4-0.3-0.7-0.5-1.1c-0.7,0-1.4,0-2.1,0c-0.1,0.3-0.3,0.7-0.5,1.1
		c-0.3,0-0.7,0-1,0c0.7-1.6,1.4-3.3,2.1-4.9c0.3,0,0.6,0,0.9,0C53,51.2,53.7,52.9,54.4,54.5z M52.6,52.5c-0.2-0.6-0.5-1.1-0.7-1.7
		c-0.2,0.6-0.5,1.1-0.7,1.7C51.7,52.5,52.1,52.5,52.6,52.5z"/>
	<path class="st1" d="M32.2,54.5c-0.3,0-0.7,0-1,0c-0.2-0.4-0.3-0.7-0.5-1.1c-0.7,0-1.4,0-2.1,0c-0.2,0.3-0.3,0.7-0.5,1.1
		c-0.3,0-0.6,0-1,0c0.7-1.6,1.4-3.3,2.1-4.9c0.3,0,0.6,0,0.9,0C30.8,51.2,31.5,52.9,32.2,54.5z M28.9,52.5c0.5,0,0.9,0,1.4,0
		c-0.2-0.6-0.5-1.1-0.7-1.7C29.4,51.4,29.2,52,28.9,52.5z"/>
	<path class="st1" d="M12.5,53.4c-0.1,0.3-0.3,0.7-0.5,1.1c-0.3,0-0.6,0-1,0c0.7-1.7,1.4-3.3,2.1-4.9c0.3,0,0.6,0,0.9,0
		c0.7,1.6,1.4,3.3,2.1,4.9c-0.3,0-0.7,0-1,0c-0.2-0.4-0.4-0.7-0.5-1.1c-0.1,0-0.1,0-0.2,0c-0.5,0-1,0-1.5,0
		C12.8,53.4,12.6,53.4,12.5,53.4z M12.9,52.5c0.5,0,0.9,0,1.4,0c-0.2-0.6-0.5-1.1-0.7-1.7C13.3,51.4,13.1,51.9,12.9,52.5z"/>
	<path class="st1" d="M37,49.6c0.3,0,0.7,0,1,0c0,0.1,0,0.2,0,0.3c0,0.8,0,1.7,0,2.5c0,0.9,0.5,1.3,1.4,1.2c0.5-0.1,0.8-0.4,0.8-1.1
		c0-0.8,0-1.6,0-2.3c0-0.2,0-0.4,0-0.6c0.3,0,0.7,0,1,0c0,0.9,0,1.7,0,2.6c0,0.3,0,0.5-0.1,0.8c-0.1,0.8-0.6,1.4-1.5,1.5
		C38,54.9,37,54,37,52.5C37,51.5,37,50.6,37,49.6z"/>
	<path class="st1" d="M46,53.1c0.2,0.2,0.4,0.4,0.6,0.6c-0.5,0.8-1.6,1.1-2.6,0.9c-1.1-0.3-1.8-1.2-1.9-2.3
		c-0.1-1.1,0.6-2.2,1.6-2.6c0.9-0.4,2.2-0.1,2.8,0.6c-0.2,0.2-0.5,0.4-0.7,0.6c-0.9-0.6-1.8-0.6-2.3,0.1c-0.5,0.7-0.5,1.7,0.2,2.3
		C44.4,53.9,45.2,53.8,46,53.1z"/>
	<path class="st1" d="M23.8,58.6c0.4-0.6,0.8-1.3,1.2-1.9c0.2,0,0.5,0,0.7,0c0,1.3,0,2.6,0,3.9c-0.2,0-0.4,0-0.7,0
		c0-0.9,0-1.8,0-2.6c0,0-0.1,0-0.1,0c-0.4,0.6-0.8,1.2-1.2,1.8c-0.4-0.6-0.8-1.2-1.2-1.8c0,0,0,0-0.1,0c0,0.9,0,1.8,0,2.7
		c-0.2,0-0.4,0-0.7,0c0-1.3,0-2.6,0-3.9c0.2,0,0.4,0,0.7,0C23,57.3,23.4,57.9,23.8,58.6z"/>
	<path class="st1" d="M39.5,58.7c0-1.1,0.9-2.1,2-2.1c1.1,0,2,0.9,2,2c0,1.1-0.9,2-2,2C40.3,60.7,39.5,59.8,39.5,58.7z M40.2,58.6
		c0,0.8,0.5,1.4,1.3,1.5c0.7,0,1.3-0.6,1.3-1.3c0-0.8-0.5-1.4-1.2-1.5C40.8,57.2,40.2,57.8,40.2,58.6z"/>
	<path class="st1" d="M33,49.6c0.3,0,0.6,0,0.9,0c0,1.3,0,2.6,0,4c0.8,0,1.6,0,2.5,0c0,0.3,0,0.6,0,0.9c-1.1,0-2.3,0-3.4,0
		C33,52.9,33,51.3,33,49.6z"/>
	<path class="st1" d="M27.9,57.3c0,0.3,0,0.7,0,1c0.6,0,1.3,0,1.9,0c0,0.2,0,0.4,0,0.6c-0.6,0-1.3,0-1.9,0c0,0.4,0,0.7,0,1
		c0.7,0,1.4,0,2.2,0c0,0.2,0,0.4,0,0.6c-1,0-1.9,0-2.9,0c0-1.3,0-2.6,0-3.9c0.9,0,1.9,0,2.8,0c0,0.2,0,0.4,0,0.6
		C29.3,57.3,28.6,57.3,27.9,57.3C27.9,57.3,27.9,57.3,27.9,57.3z"/>
	<path class="st1" d="M36.2,60c0.8,0,1.5,0,2.2,0c0,0.2,0,0.4,0,0.6c-1,0-1.9,0-2.9,0c0-1.3,0-2.6,0-3.9c0.9,0,1.9,0,2.8,0
		c0,0.2,0,0.4,0,0.6c-0.7,0-1.4,0-2.1,0c0,0.4,0,0.7,0,1.1c0.6,0,1.3,0,1.9,0c0,0.2,0,0.4,0,0.6c-0.6,0-1.3,0-1.9,0
		C36.2,59.3,36.2,59.6,36.2,60z"/>
	<path class="st1" d="M47.5,49.6c0.3,0,0.7,0,1,0c0,1.6,0,3.3,0,4.9c-0.3,0-0.6,0-1,0C47.5,52.9,47.5,51.3,47.5,49.6z"/>
	<path class="st1" d="M34.3,56.7c0,0.2,0,0.4,0,0.6c-0.4,0-0.8,0-1.2,0c0,1.1,0,2.2,0,3.3c-0.2,0-0.4,0-0.7,0c0-1.1,0-2.2,0-3.3
		c-0.4,0-0.8,0-1.2,0c0-0.2,0-0.4,0-0.6C32.2,56.7,33.2,56.7,34.3,56.7z"/>
	<path class="st1" d="M47.5,48.9c0.2-0.4,0.5-0.8,0.7-1.2c0.4,0.2,0.7,0.3,1,0.5C48.8,48.6,48.3,49.1,47.5,48.9z"/>
	<path class="st2" d="M14.4,53.4c0.1,0,0.1,0,0.2,0C14.5,53.4,14.5,53.4,14.4,53.4z"/>
	<path class="st3" d="M27.9,57.3C27.9,57.3,27.9,57.3,27.9,57.3C27.9,57.3,27.9,57.3,27.9,57.3z"/>
</g>
</svg>
